<?xml version="1.0" encoding="UTF-8" standalone="no"?>
<!DOCTYPE svg PUBLIC "-//W3C//DTD SVG 1.1//EN"
 "http://www.w3.org/Graphics/SVG/1.1/DTD/svg11.dtd">
<!-- Generated by graphviz version 14.1.5 (20260411.2331)
 -->
<!-- Title: BTree Pages: 1 -->
<svg width="1054pt" height="264pt"
 viewBox="0.00 0.00 1054.00 264.00" xmlns="http://www.w3.org/2000/svg" xmlns:xlink="http://www.w3.org/1999/xlink">
<g id="graph0" class="graph" transform="scale(1 1) rotate(0) translate(4 260)">
<title>BTree</title>
<polygon fill="white" stroke="none" points="-4,4 -4,-260 1050.25,-260 1050.25,4 -4,4"/>
<!-- node0 -->
<g id="node1" class="node">
<title>node0</title>
<polygon fill="none" stroke="black" points="477,-219.5 477,-255.5 531,-255.5 531,-219.5 477,-219.5"/>
<text xml:space="preserve" text-anchor="middle" x="503.75" y="-232.45" font-family="Times New Roman,serif" font-size="14.00">50</text>
</g>
<!-- node1 -->
<g id="node2" class="node">
<title>node1</title>
<polygon fill="none" stroke="black" points="336.5,-146.5 336.5,-182.5 395.5,-182.5 395.5,-146.5 336.5,-146.5"/>
<text xml:space="preserve" text-anchor="middle" x="351.25" y="-159.45" font-family="Times New Roman,serif" font-size="14.00">10</text>
<polyline fill="none" stroke="black" points="366,-146.5 366,-182.5"/>
<text xml:space="preserve" text-anchor="middle" x="380.75" y="-159.45" font-family="Times New Roman,serif" font-size="14.00">25</text>
</g>
<!-- node0&#45;&gt;node1 -->
<g id="edge12" class="edge">
<title>node0&#45;&gt;node1</title>
<path fill="none" stroke="black" d="M476.74,-222.47C456.44,-212.03 428.42,-197.61 405.64,-185.9"/>
<polygon fill="black" stroke="black" points="407.44,-182.88 396.94,-181.42 404.23,-189.11 407.44,-182.88"/>
</g>
<!-- node13 -->
<g id="node14" class="node">
<title>node13</title>
<polygon fill="none" stroke="black" points="707,-146.5 707,-182.5 761,-182.5 761,-146.5 707,-146.5"/>
<text xml:space="preserve" text-anchor="middle" x="733.75" y="-159.45" font-family="Times New Roman,serif" font-size="14.00">75</text>
</g>
<!-- node0&#45;&gt;node13 -->
<g id="edge19" class="edge">
<title>node0&#45;&gt;node13</title>
<path fill="none" stroke="black" d="M531.29,-228.08C572.18,-215.45 649.51,-191.58 695.93,-177.25"/>
<polygon fill="black" stroke="black" points="696.78,-180.65 705.3,-174.36 694.71,-173.96 696.78,-180.65"/>
</g>
<!-- node2 -->
<g id="node3" class="node">
<title>node2</title>
<polygon fill="none" stroke="black" points="72,-73.5 72,-109.5 126,-109.5 126,-73.5 72,-73.5"/>
<text xml:space="preserve" text-anchor="middle" x="98.88" y="-86.45" font-family="Times New Roman,serif" font-size="14.00">5</text>
</g>
<!-- node1&#45;&gt;node2 -->
<g id="edge3" class="edge">
<title>node1&#45;&gt;node2</title>
<path fill="none" stroke="black" d="M336.15,-155.56C287.47,-142.62 191.03,-116.97 137.35,-102.7"/>
<polygon fill="black" stroke="black" points="138.28,-99.32 127.72,-100.14 136.48,-106.09 138.28,-99.32"/>
</g>
<!-- node5 -->
<g id="node6" class="node">
<title>node5</title>
<polygon fill="none" stroke="black" points="259.5,-73.5 259.5,-109.5 318.5,-109.5 318.5,-73.5 259.5,-73.5"/>
<text xml:space="preserve" text-anchor="middle" x="274.25" y="-86.45" font-family="Times New Roman,serif" font-size="14.00">15</text>
<polyline fill="none" stroke="black" points="289,-73.5 289,-109.5"/>
<text xml:space="preserve" text-anchor="middle" x="303.75" y="-86.45" font-family="Times New Roman,serif" font-size="14.00">20</text>
</g>
<!-- node1&#45;&gt;node5 -->
<g id="edge7" class="edge">
<title>node1&#45;&gt;node5</title>
<path fill="none" stroke="black" d="M347.36,-146.31C337.97,-137.66 326.41,-127 316.07,-117.46"/>
<polygon fill="black" stroke="black" points="318.57,-115.01 308.85,-110.8 313.83,-120.15 318.57,-115.01"/>
</g>
<!-- node9 -->
<g id="node10" class="node">
<title>node9</title>
<polygon fill="none" stroke="black" points="413.5,-73.5 413.5,-109.5 472.5,-109.5 472.5,-73.5 413.5,-73.5"/>
<text xml:space="preserve" text-anchor="middle" x="428.25" y="-86.45" font-family="Times New Roman,serif" font-size="14.00">30</text>
<polyline fill="none" stroke="black" points="443,-73.5 443,-109.5"/>
<text xml:space="preserve" text-anchor="middle" x="457.75" y="-86.45" font-family="Times New Roman,serif" font-size="14.00">35</text>
</g>
<!-- node1&#45;&gt;node9 -->
<g id="edge11" class="edge">
<title>node1&#45;&gt;node9</title>
<path fill="none" stroke="black" d="M384.64,-146.31C394.03,-137.66 405.59,-127 415.93,-117.46"/>
<polygon fill="black" stroke="black" points="418.17,-120.15 423.15,-110.8 413.43,-115.01 418.17,-120.15"/>
</g>
<!-- node3 -->
<g id="node4" class="node">
<title>node3</title>
<polygon fill="none" stroke="black" points="0,-0.5 0,-36.5 54,-36.5 54,-0.5 0,-0.5"/>
<text xml:space="preserve" text-anchor="middle" x="13.38" y="-13.45" font-family="Times New Roman,serif" font-size="14.00">1</text>
<polyline fill="none" stroke="black" points="26.75,-0.5 26.75,-36.5"/>
<text xml:space="preserve" text-anchor="middle" x="40.12" y="-13.45" font-family="Times New Roman,serif" font-size="14.00">3</text>
</g>
<!-- node2&#45;&gt;node3 -->
<g id="edge1" class="edge">
<title>node2&#45;&gt;node3</title>
<path fill="none" stroke="black" d="M81.57,-73.31C72.88,-64.74 62.2,-54.21 52.6,-44.74"/>
<polygon fill="black" stroke="black" points="55.17,-42.37 45.6,-37.84 50.26,-47.35 55.17,-42.37"/>
</g>
<!-- node4 -->
<g id="node5" class="node">
<title>node4</title>
<polygon fill="none" stroke="black" points="72,-0.5 72,-36.5 126,-36.5 126,-0.5 72,-0.5"/>
<text xml:space="preserve" text-anchor="middle" x="85.38" y="-13.45" font-family="Times New Roman,serif" font-size="14.00">7</text>
<polyline fill="none" stroke="black" points="98.75,-0.5 98.75,-36.5"/>
<text xml:space="preserve" text-anchor="middle" x="112.12" y="-13.45" font-family="Times New Roman,serif" font-size="14.00">8</text>
</g>
<!-- node2&#45;&gt;node4 -->
<g id="edge2" class="edge">
<title>node2&#45;&gt;node4</title>
<path fill="none" stroke="black" d="M99,-73.31C99,-65.73 99,-56.6 99,-48.04"/>
<polygon fill="black" stroke="black" points="102.5,-48.04 99,-38.04 95.5,-48.04 102.5,-48.04"/>
</g>
<!-- node6 -->
<g id="node7" class="node">
<title>node6</title>
<polygon fill="none" stroke="black" points="144.5,-0.5 144.5,-36.5 203.5,-36.5 203.5,-0.5 144.5,-0.5"/>
<text xml:space="preserve" text-anchor="middle" x="159.25" y="-13.45" font-family="Times New Roman,serif" font-size="14.00">12</text>
<polyline fill="none" stroke="black" points="174,-0.5 174,-36.5"/>
<text xml:space="preserve" text-anchor="middle" x="188.75" y="-13.45" font-family="Times New Roman,serif" font-size="14.00">13</text>
</g>
<!-- node5&#45;&gt;node6 -->
<g id="edge4" class="edge">
<title>node5&#45;&gt;node6</title>
<path fill="none" stroke="black" d="M260.87,-73.13C246.11,-64.02 227.82,-52.73 211.84,-42.86"/>
<polygon fill="black" stroke="black" points="213.88,-40.01 203.53,-37.73 210.2,-45.96 213.88,-40.01"/>
</g>
<!-- node7 -->
<g id="node8" class="node">
<title>node7</title>
<polygon fill="none" stroke="black" points="221.5,-0.5 221.5,-36.5 280.5,-36.5 280.5,-0.5 221.5,-0.5"/>
<text xml:space="preserve" text-anchor="middle" x="236.25" y="-13.45" font-family="Times New Roman,serif" font-size="14.00">17</text>
<polyline fill="none" stroke="black" points="251,-0.5 251,-36.5"/>
<text xml:space="preserve" text-anchor="middle" x="265.75" y="-13.45" font-family="Times New Roman,serif" font-size="14.00">18</text>
</g>
<!-- node5&#45;&gt;node7 -->
<g id="edge5" class="edge">
<title>node5&#45;&gt;node7</title>
<path fill="none" stroke="black" d="M279.8,-73.31C275.51,-65.29 270.29,-55.55 265.49,-46.57"/>
<polygon fill="black" stroke="black" points="268.63,-45.03 260.83,-37.86 262.46,-48.33 268.63,-45.03"/>
</g>
<!-- node8 -->
<g id="node9" class="node">
<title>node8</title>
<polygon fill="none" stroke="black" points="298.5,-0.5 298.5,-36.5 357.5,-36.5 357.5,-0.5 298.5,-0.5"/>
<text xml:space="preserve" text-anchor="middle" x="313.25" y="-13.45" font-family="Times New Roman,serif" font-size="14.00">22</text>
<polyline fill="none" stroke="black" points="328,-0.5 328,-36.5"/>
<text xml:space="preserve" text-anchor="middle" x="342.75" y="-13.45" font-family="Times New Roman,serif" font-size="14.00">23</text>
</g>
<!-- node5&#45;&gt;node8 -->
<g id="edge6" class="edge">
<title>node5&#45;&gt;node8</title>
<path fill="none" stroke="black" d="M298.44,-73.31C302.85,-65.29 308.2,-55.55 313.13,-46.57"/>
<polygon fill="black" stroke="black" points="316.17,-48.31 317.92,-37.86 310.04,-44.94 316.17,-48.31"/>
</g>
<!-- node10 -->
<g id="node11" class="node">
<title>node10</title>
<polygon fill="none" stroke="black" points="375.5,-0.5 375.5,-36.5 434.5,-36.5 434.5,-0.5 375.5,-0.5"/>
<text xml:space="preserve" text-anchor="middle" x="390.25" y="-13.45" font-family="Times New Roman,serif" font-size="14.00">27</text>
<polyline fill="none" stroke="black" points="405,-0.5 405,-36.5"/>
<text xml:space="preserve" text-anchor="middle" x="419.75" y="-13.45" font-family="Times New Roman,serif" font-size="14.00">28</text>
</g>
<!-- node9&#45;&gt;node10 -->
<g id="edge8" class="edge">
<title>node9&#45;&gt;node10</title>
<path fill="none" stroke="black" d="M433.8,-73.31C429.51,-65.29 424.29,-55.55 419.49,-46.57"/>
<polygon fill="black" stroke="black" points="422.63,-45.03 414.83,-37.86 416.46,-48.33 422.63,-45.03"/>
</g>
<!-- node11 -->
<g id="node12" class="node">
<title>node11</title>
<polygon fill="none" stroke="black" points="452.5,-0.5 452.5,-36.5 511.5,-36.5 511.5,-0.5 452.5,-0.5"/>
<text xml:space="preserve" text-anchor="middle" x="467.25" y="-13.45" font-family="Times New Roman,serif" font-size="14.00">32</text>
<polyline fill="none" stroke="black" points="482,-0.5 482,-36.5"/>
<text xml:space="preserve" text-anchor="middle" x="496.75" y="-13.45" font-family="Times New Roman,serif" font-size="14.00">33</text>
</g>
<!-- node9&#45;&gt;node11 -->
<g id="edge9" class="edge">
<title>node9&#45;&gt;node11</title>
<path fill="none" stroke="black" d="M452.44,-73.31C456.85,-65.29 462.2,-55.55 467.13,-46.57"/>
<polygon fill="black" stroke="black" points="470.17,-48.31 471.92,-37.86 464.04,-44.94 470.17,-48.31"/>
</g>
<!-- node12 -->
<g id="node13" class="node">
<title>node12</title>
<polygon fill="none" stroke="black" points="529.75,-0.5 529.75,-36.5 618.25,-36.5 618.25,-0.5 529.75,-0.5"/>
<text xml:space="preserve" text-anchor="middle" x="544.5" y="-13.45" font-family="Times New Roman,serif" font-size="14.00">37</text>
<polyline fill="none" stroke="black" points="559.25,-0.5 559.25,-36.5"/>
<text xml:space="preserve" text-anchor="middle" x="574" y="-13.45" font-family="Times New Roman,serif" font-size="14.00">38</text>
<polyline fill="none" stroke="black" points="588.75,-0.5 588.75,-36.5"/>
<text xml:space="preserve" text-anchor="middle" x="603.5" y="-13.45" font-family="Times New Roman,serif" font-size="14.00">42</text>
</g>
<!-- node9&#45;&gt;node12 -->
<g id="edge10" class="edge">
<title>node9&#45;&gt;node12</title>
<path fill="none" stroke="black" d="M472.73,-74.39C490.26,-64.89 512.73,-52.71 532.04,-42.24"/>
<polygon fill="black" stroke="black" points="533.65,-45.35 540.77,-37.51 530.31,-39.2 533.65,-45.35"/>
</g>
<!-- node14 -->
<g id="node15" class="node">
<title>node14</title>
<polygon fill="none" stroke="black" points="707,-73.5 707,-109.5 761,-109.5 761,-73.5 707,-73.5"/>
<text xml:space="preserve" text-anchor="middle" x="733.75" y="-86.45" font-family="Times New Roman,serif" font-size="14.00">60</text>
</g>
<!-- node13&#45;&gt;node14 -->
<g id="edge15" class="edge">
<title>node13&#45;&gt;node14</title>
<path fill="none" stroke="black" d="M734,-146.31C734,-138.73 734,-129.6 734,-121.04"/>
<polygon fill="black" stroke="black" points="737.5,-121.04 734,-111.04 730.5,-121.04 737.5,-121.04"/>
</g>
<!-- node17 -->
<g id="node18" class="node">
<title>node17</title>
<polygon fill="none" stroke="black" points="868,-73.5 868,-109.5 922,-109.5 922,-73.5 868,-73.5"/>
<text xml:space="preserve" text-anchor="middle" x="894.75" y="-86.45" font-family="Times New Roman,serif" font-size="14.00">90</text>
</g>
<!-- node13&#45;&gt;node17 -->
<g id="edge18" class="edge">
<title>node13&#45;&gt;node17</title>
<path fill="none" stroke="black" d="M761.31,-151.46C787.68,-139.83 827.83,-122.12 857.25,-109.15"/>
<polygon fill="black" stroke="black" points="858.43,-112.45 866.17,-105.21 855.61,-106.05 858.43,-112.45"/>
</g>
<!-- node15 -->
<g id="node16" class="node">
<title>node15</title>
<polygon fill="none" stroke="black" points="636.75,-0.5 636.75,-36.5 725.25,-36.5 725.25,-0.5 636.75,-0.5"/>
<text xml:space="preserve" text-anchor="middle" x="651.5" y="-13.45" font-family="Times New Roman,serif" font-size="14.00">52</text>
<polyline fill="none" stroke="black" points="666.25,-0.5 666.25,-36.5"/>
<text xml:space="preserve" text-anchor="middle" x="681" y="-13.45" font-family="Times New Roman,serif" font-size="14.00">55</text>
<polyline fill="none" stroke="black" points="695.75,-0.5 695.75,-36.5"/>
<text xml:space="preserve" text-anchor="middle" x="710.5" y="-13.45" font-family="Times New Roman,serif" font-size="14.00">57</text>
</g>
<!-- node14&#45;&gt;node15 -->
<g id="edge13" class="edge">
<title>node14&#45;&gt;node15</title>
<path fill="none" stroke="black" d="M721.17,-73.31C714.99,-65.03 707.43,-54.91 700.55,-45.69"/>
<polygon fill="black" stroke="black" points="703.4,-43.66 694.62,-37.74 697.79,-47.85 703.4,-43.66"/>
</g>
<!-- node16 -->
<g id="node17" class="node">
<title>node16</title>
<polygon fill="none" stroke="black" points="743.75,-0.5 743.75,-36.5 832.25,-36.5 832.25,-0.5 743.75,-0.5"/>
<text xml:space="preserve" text-anchor="middle" x="758.5" y="-13.45" font-family="Times New Roman,serif" font-size="14.00">62</text>
<polyline fill="none" stroke="black" points="773.25,-0.5 773.25,-36.5"/>
<text xml:space="preserve" text-anchor="middle" x="788" y="-13.45" font-family="Times New Roman,serif" font-size="14.00">65</text>
<polyline fill="none" stroke="black" points="802.75,-0.5 802.75,-36.5"/>
<text xml:space="preserve" text-anchor="middle" x="817.5" y="-13.45" font-family="Times New Roman,serif" font-size="14.00">67</text>
</g>
<!-- node14&#45;&gt;node16 -->
<g id="edge14" class="edge">
<title>node14&#45;&gt;node16</title>
<path fill="none" stroke="black" d="M747.07,-73.31C753.44,-64.94 761.23,-54.7 768.3,-45.4"/>
<polygon fill="black" stroke="black" points="770.86,-47.81 774.13,-37.73 765.29,-43.57 770.86,-47.81"/>
</g>
<!-- node18 -->
<g id="node19" class="node">
<title>node18</title>
<polygon fill="none" stroke="black" points="850.75,-0.5 850.75,-36.5 939.25,-36.5 939.25,-0.5 850.75,-0.5"/>
<text xml:space="preserve" text-anchor="middle" x="865.5" y="-13.45" font-family="Times New Roman,serif" font-size="14.00">82</text>
<polyline fill="none" stroke="black" points="880.25,-0.5 880.25,-36.5"/>
<text xml:space="preserve" text-anchor="middle" x="895" y="-13.45" font-family="Times New Roman,serif" font-size="14.00">85</text>
<polyline fill="none" stroke="black" points="909.75,-0.5 909.75,-36.5"/>
<text xml:space="preserve" text-anchor="middle" x="924.5" y="-13.45" font-family="Times New Roman,serif" font-size="14.00">87</text>
</g>
<!-- node17&#45;&gt;node18 -->
<g id="edge16" class="edge">
<title>node17&#45;&gt;node18</title>
<path fill="none" stroke="black" d="M895,-73.31C895,-65.73 895,-56.6 895,-48.04"/>
<polygon fill="black" stroke="black" points="898.5,-48.04 895,-38.04 891.5,-48.04 898.5,-48.04"/>
</g>
<!-- node19 -->
<g id="node20" class="node">
<title>node19</title>
<polygon fill="none" stroke="black" points="957.75,-0.5 957.75,-36.5 1046.25,-36.5 1046.25,-0.5 957.75,-0.5"/>
<text xml:space="preserve" text-anchor="middle" x="972.5" y="-13.45" font-family="Times New Roman,serif" font-size="14.00">92</text>
<polyline fill="none" stroke="black" points="987.25,-0.5 987.25,-36.5"/>
<text xml:space="preserve" text-anchor="middle" x="1002" y="-13.45" font-family="Times New Roman,serif" font-size="14.00">95</text>
<polyline fill="none" stroke="black" points="1016.75,-0.5 1016.75,-36.5"/>
<text xml:space="preserve" text-anchor="middle" x="1031.5" y="-13.45" font-family="Times New Roman,serif" font-size="14.00">97</text>
</g>
<!-- node17&#45;&gt;node19 -->
<g id="edge17" class="edge">
<title>node17&#45;&gt;node19</title>
<path fill="none" stroke="black" d="M921.18,-73.13C934.78,-64.11 951.6,-52.94 966.37,-43.14"/>
<polygon fill="black" stroke="black" points="968.07,-46.22 974.46,-37.77 964.2,-40.38 968.07,-46.22"/>
</g>
</g>
</svg>
