<?xml version="1.0" encoding="UTF-8" standalone="no"?>
<!DOCTYPE svg PUBLIC "-//W3C//DTD SVG 1.1//EN"
 "http://www.w3.org/Graphics/SVG/1.1/DTD/svg11.dtd">
<!-- Generated by graphviz version 14.1.5 (20260411.2331)
 -->
<!-- Title: BTree Pages: 1 -->
<svg width="860pt" height="264pt"
 viewBox="0.00 0.00 860.00 264.00" xmlns="http://www.w3.org/2000/svg" xmlns:xlink="http://www.w3.org/1999/xlink">
<g id="graph0" class="graph" transform="scale(1 1) rotate(0) translate(4 260)">
<title>BTree</title>
<polygon fill="white" stroke="none" points="-4,4 -4,-260 856.38,-260 856.38,4 -4,4"/>
<!-- node0 -->
<g id="node1" class="node">
<title>node0</title>
<polygon fill="none" stroke="black" points="362.12,-219.5 362.12,-255.5 416.12,-255.5 416.12,-219.5 362.12,-219.5"/>
<text xml:space="preserve" text-anchor="middle" x="388.88" y="-232.45" font-family="Times New Roman,serif" font-size="14.00">50</text>
</g>
<!-- node1 -->
<g id="node2" class="node">
<title>node1</title>
<polygon fill="none" stroke="black" points="309.12,-146.5 309.12,-182.5 363.12,-182.5 363.12,-146.5 309.12,-146.5"/>
<text xml:space="preserve" text-anchor="middle" x="335.88" y="-159.45" font-family="Times New Roman,serif" font-size="14.00">25</text>
</g>
<!-- node0&#45;&gt;node1 -->
<g id="edge8" class="edge">
<title>node0&#45;&gt;node1</title>
<path fill="none" stroke="black" d="M376.3,-219.31C370.11,-211.03 362.56,-200.91 355.68,-191.69"/>
<polygon fill="black" stroke="black" points="358.53,-189.66 349.74,-183.74 352.92,-193.85 358.53,-189.66"/>
</g>
<!-- node9 -->
<g id="node10" class="node">
<title>node9</title>
<polygon fill="none" stroke="black" points="513.12,-146.5 513.12,-182.5 567.12,-182.5 567.12,-146.5 513.12,-146.5"/>
<text xml:space="preserve" text-anchor="middle" x="539.88" y="-159.45" font-family="Times New Roman,serif" font-size="14.00">75</text>
</g>
<!-- node0&#45;&gt;node9 -->
<g id="edge15" class="edge">
<title>node0&#45;&gt;node9</title>
<path fill="none" stroke="black" d="M416.47,-223.64C440.55,-212.32 475.86,-195.72 502.59,-183.15"/>
<polygon fill="black" stroke="black" points="503.8,-186.45 511.36,-179.03 500.82,-180.11 503.8,-186.45"/>
</g>
<!-- node2 -->
<g id="node3" class="node">
<title>node2</title>
<polygon fill="none" stroke="black" points="128.62,-73.5 128.62,-109.5 187.62,-109.5 187.62,-73.5 128.62,-73.5"/>
<text xml:space="preserve" text-anchor="middle" x="143.38" y="-86.45" font-family="Times New Roman,serif" font-size="14.00">10</text>
<polyline fill="none" stroke="black" points="158.12,-73.5 158.12,-109.5"/>
<text xml:space="preserve" text-anchor="middle" x="172.88" y="-86.45" font-family="Times New Roman,serif" font-size="14.00">15</text>
</g>
<!-- node1&#45;&gt;node2 -->
<g id="edge4" class="edge">
<title>node1&#45;&gt;node2</title>
<path fill="none" stroke="black" d="M308.7,-152.56C279.22,-140.8 232.07,-121.99 198.38,-108.56"/>
<polygon fill="black" stroke="black" points="199.95,-105.41 189.36,-104.96 197.35,-111.92 199.95,-105.41"/>
</g>
<!-- node6 -->
<g id="node7" class="node">
<title>node6</title>
<polygon fill="none" stroke="black" points="309.12,-73.5 309.12,-109.5 363.12,-109.5 363.12,-73.5 309.12,-73.5"/>
<text xml:space="preserve" text-anchor="middle" x="335.88" y="-86.45" font-family="Times New Roman,serif" font-size="14.00">30</text>
</g>
<!-- node1&#45;&gt;node6 -->
<g id="edge7" class="edge">
<title>node1&#45;&gt;node6</title>
<path fill="none" stroke="black" d="M336.12,-146.31C336.12,-138.73 336.12,-129.6 336.12,-121.04"/>
<polygon fill="black" stroke="black" points="339.63,-121.04 336.13,-111.04 332.63,-121.04 339.63,-121.04"/>
</g>
<!-- node3 -->
<g id="node4" class="node">
<title>node3</title>
<polygon fill="none" stroke="black" points="0,-0.5 0,-36.5 68.25,-36.5 68.25,-0.5 0,-0.5"/>
<text xml:space="preserve" text-anchor="middle" x="11.38" y="-13.45" font-family="Times New Roman,serif" font-size="14.00">3</text>
<polyline fill="none" stroke="black" points="22.75,-0.5 22.75,-36.5"/>
<text xml:space="preserve" text-anchor="middle" x="34.12" y="-13.45" font-family="Times New Roman,serif" font-size="14.00">5</text>
<polyline fill="none" stroke="black" points="45.5,-0.5 45.5,-36.5"/>
<text xml:space="preserve" text-anchor="middle" x="56.88" y="-13.45" font-family="Times New Roman,serif" font-size="14.00">7</text>
</g>
<!-- node2&#45;&gt;node3 -->
<g id="edge1" class="edge">
<title>node2&#45;&gt;node3</title>
<path fill="none" stroke="black" d="M128.42,-73.49C112.25,-64.23 92.01,-52.65 74.44,-42.58"/>
<polygon fill="black" stroke="black" points="76.18,-39.54 65.76,-37.61 72.7,-45.62 76.18,-39.54"/>
</g>
<!-- node4 -->
<g id="node5" class="node">
<title>node4</title>
<polygon fill="none" stroke="black" points="86.12,-0.5 86.12,-36.5 140.12,-36.5 140.12,-0.5 86.12,-0.5"/>
<text xml:space="preserve" text-anchor="middle" x="112.88" y="-13.45" font-family="Times New Roman,serif" font-size="14.00">12</text>
</g>
<!-- node2&#45;&gt;node4 -->
<g id="edge2" class="edge">
<title>node2&#45;&gt;node4</title>
<path fill="none" stroke="black" d="M147.23,-73.31C142.04,-65.12 135.7,-55.12 129.91,-45.98"/>
<polygon fill="black" stroke="black" points="133.04,-44.38 124.73,-37.81 127.13,-48.13 133.04,-44.38"/>
</g>
<!-- node5 -->
<g id="node6" class="node">
<title>node5</title>
<polygon fill="none" stroke="black" points="157.88,-0.5 157.88,-36.5 246.38,-36.5 246.38,-0.5 157.88,-0.5"/>
<text xml:space="preserve" text-anchor="middle" x="172.62" y="-13.45" font-family="Times New Roman,serif" font-size="14.00">17</text>
<polyline fill="none" stroke="black" points="187.38,-0.5 187.38,-36.5"/>
<text xml:space="preserve" text-anchor="middle" x="202.12" y="-13.45" font-family="Times New Roman,serif" font-size="14.00">20</text>
<polyline fill="none" stroke="black" points="216.88,-0.5 216.88,-36.5"/>
<text xml:space="preserve" text-anchor="middle" x="231.62" y="-13.45" font-family="Times New Roman,serif" font-size="14.00">22</text>
</g>
<!-- node2&#45;&gt;node5 -->
<g id="edge3" class="edge">
<title>node2&#45;&gt;node5</title>
<path fill="none" stroke="black" d="M168.78,-73.31C173.8,-65.2 179.92,-55.34 185.53,-46.28"/>
<polygon fill="black" stroke="black" points="188.48,-48.16 190.77,-37.82 182.53,-44.47 188.48,-48.16"/>
</g>
<!-- node7 -->
<g id="node8" class="node">
<title>node7</title>
<polygon fill="none" stroke="black" points="264.12,-0.5 264.12,-36.5 318.12,-36.5 318.12,-0.5 264.12,-0.5"/>
<text xml:space="preserve" text-anchor="middle" x="290.88" y="-13.45" font-family="Times New Roman,serif" font-size="14.00">27</text>
</g>
<!-- node6&#45;&gt;node7 -->
<g id="edge5" class="edge">
<title>node6&#45;&gt;node7</title>
<path fill="none" stroke="black" d="M325.23,-73.31C320.04,-65.12 313.7,-55.12 307.91,-45.98"/>
<polygon fill="black" stroke="black" points="311.04,-44.38 302.73,-37.81 305.13,-48.13 311.04,-44.38"/>
</g>
<!-- node8 -->
<g id="node9" class="node">
<title>node8</title>
<polygon fill="none" stroke="black" points="335.88,-0.5 335.88,-36.5 424.38,-36.5 424.38,-0.5 335.88,-0.5"/>
<text xml:space="preserve" text-anchor="middle" x="350.62" y="-13.45" font-family="Times New Roman,serif" font-size="14.00">32</text>
<polyline fill="none" stroke="black" points="365.38,-0.5 365.38,-36.5"/>
<text xml:space="preserve" text-anchor="middle" x="380.12" y="-13.45" font-family="Times New Roman,serif" font-size="14.00">35</text>
<polyline fill="none" stroke="black" points="394.88,-0.5 394.88,-36.5"/>
<text xml:space="preserve" text-anchor="middle" x="409.62" y="-13.45" font-family="Times New Roman,serif" font-size="14.00">37</text>
</g>
<!-- node6&#45;&gt;node8 -->
<g id="edge6" class="edge">
<title>node6&#45;&gt;node8</title>
<path fill="none" stroke="black" d="M346.78,-73.31C351.8,-65.2 357.92,-55.34 363.53,-46.28"/>
<polygon fill="black" stroke="black" points="366.48,-48.16 368.77,-37.82 360.53,-44.47 366.48,-48.16"/>
</g>
<!-- node10 -->
<g id="node11" class="node">
<title>node10</title>
<polygon fill="none" stroke="black" points="513.12,-73.5 513.12,-109.5 567.12,-109.5 567.12,-73.5 513.12,-73.5"/>
<text xml:space="preserve" text-anchor="middle" x="539.88" y="-86.45" font-family="Times New Roman,serif" font-size="14.00">60</text>
</g>
<!-- node9&#45;&gt;node10 -->
<g id="edge11" class="edge">
<title>node9&#45;&gt;node10</title>
<path fill="none" stroke="black" d="M540.12,-146.31C540.12,-138.73 540.12,-129.6 540.12,-121.04"/>
<polygon fill="black" stroke="black" points="543.63,-121.04 540.13,-111.04 536.63,-121.04 543.63,-121.04"/>
</g>
<!-- node13 -->
<g id="node14" class="node">
<title>node13</title>
<polygon fill="none" stroke="black" points="674.12,-73.5 674.12,-109.5 728.12,-109.5 728.12,-73.5 674.12,-73.5"/>
<text xml:space="preserve" text-anchor="middle" x="700.88" y="-86.45" font-family="Times New Roman,serif" font-size="14.00">90</text>
</g>
<!-- node9&#45;&gt;node13 -->
<g id="edge14" class="edge">
<title>node9&#45;&gt;node13</title>
<path fill="none" stroke="black" d="M567.44,-151.46C593.8,-139.83 633.95,-122.12 663.37,-109.15"/>
<polygon fill="black" stroke="black" points="664.56,-112.45 672.29,-105.21 661.73,-106.05 664.56,-112.45"/>
</g>
<!-- node11 -->
<g id="node12" class="node">
<title>node11</title>
<polygon fill="none" stroke="black" points="442.88,-0.5 442.88,-36.5 531.38,-36.5 531.38,-0.5 442.88,-0.5"/>
<text xml:space="preserve" text-anchor="middle" x="457.62" y="-13.45" font-family="Times New Roman,serif" font-size="14.00">52</text>
<polyline fill="none" stroke="black" points="472.38,-0.5 472.38,-36.5"/>
<text xml:space="preserve" text-anchor="middle" x="487.12" y="-13.45" font-family="Times New Roman,serif" font-size="14.00">55</text>
<polyline fill="none" stroke="black" points="501.88,-0.5 501.88,-36.5"/>
<text xml:space="preserve" text-anchor="middle" x="516.62" y="-13.45" font-family="Times New Roman,serif" font-size="14.00">57</text>
</g>
<!-- node10&#45;&gt;node11 -->
<g id="edge9" class="edge">
<title>node10&#45;&gt;node11</title>
<path fill="none" stroke="black" d="M527.3,-73.31C521.11,-65.03 513.56,-54.91 506.68,-45.69"/>
<polygon fill="black" stroke="black" points="509.53,-43.66 500.74,-37.74 503.92,-47.85 509.53,-43.66"/>
</g>
<!-- node12 -->
<g id="node13" class="node">
<title>node12</title>
<polygon fill="none" stroke="black" points="549.88,-0.5 549.88,-36.5 638.38,-36.5 638.38,-0.5 549.88,-0.5"/>
<text xml:space="preserve" text-anchor="middle" x="564.62" y="-13.45" font-family="Times New Roman,serif" font-size="14.00">62</text>
<polyline fill="none" stroke="black" points="579.38,-0.5 579.38,-36.5"/>
<text xml:space="preserve" text-anchor="middle" x="594.12" y="-13.45" font-family="Times New Roman,serif" font-size="14.00">65</text>
<polyline fill="none" stroke="black" points="608.88,-0.5 608.88,-36.5"/>
<text xml:space="preserve" text-anchor="middle" x="623.62" y="-13.45" font-family="Times New Roman,serif" font-size="14.00">67</text>
</g>
<!-- node10&#45;&gt;node12 -->
<g id="edge10" class="edge">
<title>node10&#45;&gt;node12</title>
<path fill="none" stroke="black" d="M553.2,-73.31C559.56,-64.94 567.36,-54.7 574.42,-45.4"/>
<polygon fill="black" stroke="black" points="576.99,-47.81 580.26,-37.73 571.42,-43.57 576.99,-47.81"/>
</g>
<!-- node14 -->
<g id="node15" class="node">
<title>node14</title>
<polygon fill="none" stroke="black" points="656.88,-0.5 656.88,-36.5 745.38,-36.5 745.38,-0.5 656.88,-0.5"/>
<text xml:space="preserve" text-anchor="middle" x="671.62" y="-13.45" font-family="Times New Roman,serif" font-size="14.00">82</text>
<polyline fill="none" stroke="black" points="686.38,-0.5 686.38,-36.5"/>
<text xml:space="preserve" text-anchor="middle" x="701.12" y="-13.45" font-family="Times New Roman,serif" font-size="14.00">85</text>
<polyline fill="none" stroke="black" points="715.88,-0.5 715.88,-36.5"/>
<text xml:space="preserve" text-anchor="middle" x="730.62" y="-13.45" font-family="Times New Roman,serif" font-size="14.00">87</text>
</g>
<!-- node13&#45;&gt;node14 -->
<g id="edge12" class="edge">
<title>node13&#45;&gt;node14</title>
<path fill="none" stroke="black" d="M701.12,-73.31C701.12,-65.73 701.12,-56.6 701.12,-48.04"/>
<polygon fill="black" stroke="black" points="704.63,-48.04 701.13,-38.04 697.63,-48.04 704.63,-48.04"/>
</g>
<!-- node15 -->
<g id="node16" class="node">
<title>node15</title>
<polygon fill="none" stroke="black" points="763.88,-0.5 763.88,-36.5 852.38,-36.5 852.38,-0.5 763.88,-0.5"/>
<text xml:space="preserve" text-anchor="middle" x="778.62" y="-13.45" font-family="Times New Roman,serif" font-size="14.00">92</text>
<polyline fill="none" stroke="black" points="793.38,-0.5 793.38,-36.5"/>
<text xml:space="preserve" text-anchor="middle" x="808.12" y="-13.45" font-family="Times New Roman,serif" font-size="14.00">95</text>
<polyline fill="none" stroke="black" points="822.88,-0.5 822.88,-36.5"/>
<text xml:space="preserve" text-anchor="middle" x="837.62" y="-13.45" font-family="Times New Roman,serif" font-size="14.00">97</text>
</g>
<!-- node13&#45;&gt;node15 -->
<g id="edge13" class="edge">
<title>node13&#45;&gt;node15</title>
<path fill="none" stroke="black" d="M727.3,-73.13C740.9,-64.11 757.72,-52.94 772.49,-43.14"/>
<polygon fill="black" stroke="black" points="774.19,-46.22 780.59,-37.77 770.32,-40.38 774.19,-46.22"/>
</g>
</g>
</svg>
