<?xml version="1.0" encoding="UTF-8" standalone="no"?>
<!DOCTYPE svg PUBLIC "-//W3C//DTD SVG 1.1//EN"
 "http://www.w3.org/Graphics/SVG/1.1/DTD/svg11.dtd">
<!-- Generated by graphviz version 14.1.5 (20260411.2331)
 -->
<!-- Title: BTree Pages: 1 -->
<svg width="428pt" height="191pt"
 viewBox="0.00 0.00 428.00 191.00" xmlns="http://www.w3.org/2000/svg" xmlns:xlink="http://www.w3.org/1999/xlink">
<g id="graph0" class="graph" transform="scale(1 1) rotate(0) translate(4 187)">
<title>BTree</title>
<polygon fill="white" stroke="none" points="-4,4 -4,-187 423.5,-187 423.5,4 -4,4"/>
<!-- node0 -->
<g id="node1" class="node">
<title>node0</title>
<polygon fill="none" stroke="black" points="180,-146.5 180,-182.5 234,-182.5 234,-146.5 180,-146.5"/>
<text xml:space="preserve" text-anchor="middle" x="193.38" y="-159.45" font-family="Times New Roman,serif" font-size="14.00">4</text>
<polyline fill="none" stroke="black" points="206.75,-146.5 206.75,-182.5"/>
<text xml:space="preserve" text-anchor="middle" x="220.12" y="-159.45" font-family="Times New Roman,serif" font-size="14.00">9</text>
</g>
<!-- node1 -->
<g id="node2" class="node">
<title>node1</title>
<polygon fill="none" stroke="black" points="72,-73.5 72,-109.5 126,-109.5 126,-73.5 72,-73.5"/>
<text xml:space="preserve" text-anchor="middle" x="98.88" y="-86.45" font-family="Times New Roman,serif" font-size="14.00">2</text>
</g>
<!-- node0&#45;&gt;node1 -->
<g id="edge3" class="edge">
<title>node0&#45;&gt;node1</title>
<path fill="none" stroke="black" d="M180.58,-146.13C166.85,-137.11 149.87,-125.94 134.96,-116.14"/>
<polygon fill="black" stroke="black" points="137.06,-113.34 126.79,-110.77 133.22,-119.18 137.06,-113.34"/>
</g>
<!-- node4 -->
<g id="node5" class="node">
<title>node4</title>
<polygon fill="none" stroke="black" points="180,-73.5 180,-109.5 234,-109.5 234,-73.5 180,-73.5"/>
<text xml:space="preserve" text-anchor="middle" x="206.88" y="-86.45" font-family="Times New Roman,serif" font-size="14.00">6</text>
</g>
<!-- node0&#45;&gt;node4 -->
<g id="edge6" class="edge">
<title>node0&#45;&gt;node4</title>
<path fill="none" stroke="black" d="M207,-146.31C207,-138.73 207,-129.6 207,-121.04"/>
<polygon fill="black" stroke="black" points="210.5,-121.04 207,-111.04 203.5,-121.04 210.5,-121.04"/>
</g>
<!-- node7 -->
<g id="node8" class="node">
<title>node7</title>
<polygon fill="none" stroke="black" points="288,-73.5 288,-109.5 342,-109.5 342,-73.5 288,-73.5"/>
<text xml:space="preserve" text-anchor="middle" x="314.75" y="-86.45" font-family="Times New Roman,serif" font-size="14.00">16</text>
</g>
<!-- node0&#45;&gt;node7 -->
<g id="edge9" class="edge">
<title>node0&#45;&gt;node7</title>
<path fill="none" stroke="black" d="M233.42,-146.13C247.15,-137.11 264.13,-125.94 279.04,-116.14"/>
<polygon fill="black" stroke="black" points="280.78,-119.18 287.21,-110.77 276.94,-113.34 280.78,-119.18"/>
</g>
<!-- node2 -->
<g id="node3" class="node">
<title>node2</title>
<polygon fill="none" stroke="black" points="0,-0.5 0,-36.5 54,-36.5 54,-0.5 0,-0.5"/>
<text xml:space="preserve" text-anchor="middle" x="26.88" y="-13.45" font-family="Times New Roman,serif" font-size="14.00">1</text>
</g>
<!-- node1&#45;&gt;node2 -->
<g id="edge1" class="edge">
<title>node1&#45;&gt;node2</title>
<path fill="none" stroke="black" d="M81.57,-73.31C72.88,-64.74 62.2,-54.21 52.6,-44.74"/>
<polygon fill="black" stroke="black" points="55.17,-42.37 45.6,-37.84 50.26,-47.35 55.17,-42.37"/>
</g>
<!-- node3 -->
<g id="node4" class="node">
<title>node3</title>
<polygon fill="none" stroke="black" points="72,-0.5 72,-36.5 126,-36.5 126,-0.5 72,-0.5"/>
<text xml:space="preserve" text-anchor="middle" x="98.88" y="-13.45" font-family="Times New Roman,serif" font-size="14.00">3</text>
</g>
<!-- node1&#45;&gt;node3 -->
<g id="edge2" class="edge">
<title>node1&#45;&gt;node3</title>
<path fill="none" stroke="black" d="M99,-73.31C99,-65.73 99,-56.6 99,-48.04"/>
<polygon fill="black" stroke="black" points="102.5,-48.04 99,-38.04 95.5,-48.04 102.5,-48.04"/>
</g>
<!-- node5 -->
<g id="node6" class="node">
<title>node5</title>
<polygon fill="none" stroke="black" points="144,-0.5 144,-36.5 198,-36.5 198,-0.5 144,-0.5"/>
<text xml:space="preserve" text-anchor="middle" x="170.88" y="-13.45" font-family="Times New Roman,serif" font-size="14.00">5</text>
</g>
<!-- node4&#45;&gt;node5 -->
<g id="edge4" class="edge">
<title>node4&#45;&gt;node5</title>
<path fill="none" stroke="black" d="M198.29,-73.31C194.22,-65.29 189.28,-55.55 184.73,-46.57"/>
<polygon fill="black" stroke="black" points="187.96,-45.21 180.32,-37.88 181.72,-48.38 187.96,-45.21"/>
</g>
<!-- node6 -->
<g id="node7" class="node">
<title>node6</title>
<polygon fill="none" stroke="black" points="216,-0.5 216,-36.5 270,-36.5 270,-0.5 216,-0.5"/>
<text xml:space="preserve" text-anchor="middle" x="229.38" y="-13.45" font-family="Times New Roman,serif" font-size="14.00">7</text>
<polyline fill="none" stroke="black" points="242.75,-0.5 242.75,-36.5"/>
<text xml:space="preserve" text-anchor="middle" x="256.12" y="-13.45" font-family="Times New Roman,serif" font-size="14.00">8</text>
</g>
<!-- node4&#45;&gt;node6 -->
<g id="edge5" class="edge">
<title>node4&#45;&gt;node6</title>
<path fill="none" stroke="black" d="M215.71,-73.31C219.78,-65.29 224.72,-55.55 229.27,-46.57"/>
<polygon fill="black" stroke="black" points="232.28,-48.38 233.68,-37.88 226.04,-45.21 232.28,-48.38"/>
</g>
<!-- node8 -->
<g id="node9" class="node">
<title>node8</title>
<polygon fill="none" stroke="black" points="288,-0.5 288,-36.5 342,-36.5 342,-0.5 288,-0.5"/>
<text xml:space="preserve" text-anchor="middle" x="314.75" y="-13.45" font-family="Times New Roman,serif" font-size="14.00">14</text>
</g>
<!-- node7&#45;&gt;node8 -->
<g id="edge7" class="edge">
<title>node7&#45;&gt;node8</title>
<path fill="none" stroke="black" d="M315,-73.31C315,-65.73 315,-56.6 315,-48.04"/>
<polygon fill="black" stroke="black" points="318.5,-48.04 315,-38.04 311.5,-48.04 318.5,-48.04"/>
</g>
<!-- node9 -->
<g id="node10" class="node">
<title>node9</title>
<polygon fill="none" stroke="black" points="360.5,-0.5 360.5,-36.5 419.5,-36.5 419.5,-0.5 360.5,-0.5"/>
<text xml:space="preserve" text-anchor="middle" x="375.25" y="-13.45" font-family="Times New Roman,serif" font-size="14.00">18</text>
<polyline fill="none" stroke="black" points="390,-0.5 390,-36.5"/>
<text xml:space="preserve" text-anchor="middle" x="404.75" y="-13.45" font-family="Times New Roman,serif" font-size="14.00">24</text>
</g>
<!-- node7&#45;&gt;node9 -->
<g id="edge8" class="edge">
<title>node7&#45;&gt;node9</title>
<path fill="none" stroke="black" d="M333.16,-73.31C342.3,-64.66 353.56,-54 363.64,-44.46"/>
<polygon fill="black" stroke="black" points="365.8,-47.23 370.65,-37.82 360.98,-42.15 365.8,-47.23"/>
</g>
</g>
</svg>
