<?xml version="1.0" encoding="UTF-8" standalone="no"?>
<!DOCTYPE svg PUBLIC "-//W3C//DTD SVG 1.1//EN"
 "http://www.w3.org/Graphics/SVG/1.1/DTD/svg11.dtd">
<!-- Generated by graphviz version 14.1.5 (20260411.2331)
 -->
<!-- Title: BTree Pages: 1 -->
<svg width="917pt" height="191pt"
 viewBox="0.00 0.00 917.00 191.00" xmlns="http://www.w3.org/2000/svg" xmlns:xlink="http://www.w3.org/1999/xlink">
<g id="graph0" class="graph" transform="scale(1 1) rotate(0) translate(4 187)">
<title>BTree</title>
<polygon fill="white" stroke="none" points="-4,4 -4,-187 912.5,-187 912.5,4 -4,4"/>
<!-- node0 -->
<g id="node1" class="node">
<title>node0</title>
<polygon fill="none" stroke="black" points="315.75,-146.5 315.75,-182.5 404.25,-182.5 404.25,-146.5 315.75,-146.5"/>
<text xml:space="preserve" text-anchor="middle" x="330.5" y="-159.45" font-family="Times New Roman,serif" font-size="14.00">13</text>
<polyline fill="none" stroke="black" points="345.25,-146.5 345.25,-182.5"/>
<text xml:space="preserve" text-anchor="middle" x="360" y="-159.45" font-family="Times New Roman,serif" font-size="14.00">27</text>
<polyline fill="none" stroke="black" points="374.75,-146.5 374.75,-182.5"/>
<text xml:space="preserve" text-anchor="middle" x="389.5" y="-159.45" font-family="Times New Roman,serif" font-size="14.00">42</text>
</g>
<!-- node1 -->
<g id="node2" class="node">
<title>node1</title>
<polygon fill="none" stroke="black" points="108,-73.5 108,-109.5 162,-109.5 162,-73.5 108,-73.5"/>
<text xml:space="preserve" text-anchor="middle" x="119.38" y="-86.45" font-family="Times New Roman,serif" font-size="14.00">5</text>
<polyline fill="none" stroke="black" points="130.75,-73.5 130.75,-109.5"/>
<text xml:space="preserve" text-anchor="middle" x="146" y="-86.45" font-family="Times New Roman,serif" font-size="14.00">10</text>
</g>
<!-- node0&#45;&gt;node1 -->
<g id="edge4" class="edge">
<title>node0&#45;&gt;node1</title>
<path fill="none" stroke="black" d="M315.28,-149.39C273.75,-136.28 212.59,-116.98 173.27,-104.58"/>
<polygon fill="black" stroke="black" points="174.34,-101.24 163.75,-101.57 172.23,-107.92 174.34,-101.24"/>
</g>
<!-- node5 -->
<g id="node6" class="node">
<title>node5</title>
<polygon fill="none" stroke="black" points="296,-73.5 296,-109.5 350,-109.5 350,-73.5 296,-73.5"/>
<text xml:space="preserve" text-anchor="middle" x="322.75" y="-86.45" font-family="Times New Roman,serif" font-size="14.00">20</text>
</g>
<!-- node0&#45;&gt;node5 -->
<g id="edge7" class="edge">
<title>node0&#45;&gt;node5</title>
<path fill="none" stroke="black" d="M351.04,-146.31C346.86,-138.29 341.79,-128.55 337.11,-119.57"/>
<polygon fill="black" stroke="black" points="340.3,-118.12 332.57,-110.87 334.09,-121.36 340.3,-118.12"/>
</g>
<!-- node8 -->
<g id="node9" class="node">
<title>node8</title>
<polygon fill="none" stroke="black" points="404.5,-73.5 404.5,-109.5 463.5,-109.5 463.5,-73.5 404.5,-73.5"/>
<text xml:space="preserve" text-anchor="middle" x="419.25" y="-86.45" font-family="Times New Roman,serif" font-size="14.00">32</text>
<polyline fill="none" stroke="black" points="434,-73.5 434,-109.5"/>
<text xml:space="preserve" text-anchor="middle" x="448.75" y="-86.45" font-family="Times New Roman,serif" font-size="14.00">35</text>
</g>
<!-- node0&#45;&gt;node8 -->
<g id="edge11" class="edge">
<title>node0&#45;&gt;node8</title>
<path fill="none" stroke="black" d="M377.91,-146.31C386.85,-137.74 397.82,-127.21 407.69,-117.74"/>
<polygon fill="black" stroke="black" points="410.11,-120.27 414.9,-110.82 405.26,-115.22 410.11,-120.27"/>
</g>
<!-- node12 -->
<g id="node13" class="node">
<title>node12</title>
<polygon fill="none" stroke="black" points="684.75,-73.5 684.75,-109.5 773.25,-109.5 773.25,-73.5 684.75,-73.5"/>
<text xml:space="preserve" text-anchor="middle" x="699.5" y="-86.45" font-family="Times New Roman,serif" font-size="14.00">60</text>
<polyline fill="none" stroke="black" points="714.25,-73.5 714.25,-109.5"/>
<text xml:space="preserve" text-anchor="middle" x="729" y="-86.45" font-family="Times New Roman,serif" font-size="14.00">75</text>
<polyline fill="none" stroke="black" points="743.75,-73.5 743.75,-109.5"/>
<text xml:space="preserve" text-anchor="middle" x="758.5" y="-86.45" font-family="Times New Roman,serif" font-size="14.00">87</text>
</g>
<!-- node0&#45;&gt;node12 -->
<g id="edge16" class="edge">
<title>node0&#45;&gt;node12</title>
<path fill="none" stroke="black" d="M404.51,-154.94C471.97,-141.96 600,-117.32 673.47,-103.19"/>
<polygon fill="black" stroke="black" points="673.69,-106.71 682.85,-101.38 672.36,-99.83 673.69,-106.71"/>
</g>
<!-- node2 -->
<g id="node3" class="node">
<title>node2</title>
<polygon fill="none" stroke="black" points="0,-0.5 0,-36.5 54,-36.5 54,-0.5 0,-0.5"/>
<text xml:space="preserve" text-anchor="middle" x="26.88" y="-13.45" font-family="Times New Roman,serif" font-size="14.00">3</text>
</g>
<!-- node1&#45;&gt;node2 -->
<g id="edge1" class="edge">
<title>node1&#45;&gt;node2</title>
<path fill="none" stroke="black" d="M108.58,-73.13C94.85,-64.11 77.87,-52.94 62.96,-43.14"/>
<polygon fill="black" stroke="black" points="65.06,-40.34 54.79,-37.77 61.22,-46.18 65.06,-40.34"/>
</g>
<!-- node3 -->
<g id="node4" class="node">
<title>node3</title>
<polygon fill="none" stroke="black" points="72,-0.5 72,-36.5 126,-36.5 126,-0.5 72,-0.5"/>
<text xml:space="preserve" text-anchor="middle" x="98.88" y="-13.45" font-family="Times New Roman,serif" font-size="14.00">8</text>
</g>
<!-- node1&#45;&gt;node3 -->
<g id="edge2" class="edge">
<title>node1&#45;&gt;node3</title>
<path fill="none" stroke="black" d="M126.29,-73.31C122.22,-65.29 117.28,-55.55 112.73,-46.57"/>
<polygon fill="black" stroke="black" points="115.96,-45.21 108.32,-37.88 109.72,-48.38 115.96,-45.21"/>
</g>
<!-- node4 -->
<g id="node5" class="node">
<title>node4</title>
<polygon fill="none" stroke="black" points="144,-0.5 144,-36.5 198,-36.5 198,-0.5 144,-0.5"/>
<text xml:space="preserve" text-anchor="middle" x="170.75" y="-13.45" font-family="Times New Roman,serif" font-size="14.00">12</text>
</g>
<!-- node1&#45;&gt;node4 -->
<g id="edge3" class="edge">
<title>node1&#45;&gt;node4</title>
<path fill="none" stroke="black" d="M143.71,-73.31C147.78,-65.29 152.72,-55.55 157.27,-46.57"/>
<polygon fill="black" stroke="black" points="160.28,-48.38 161.68,-37.88 154.04,-45.21 160.28,-48.38"/>
</g>
<!-- node6 -->
<g id="node7" class="node">
<title>node6</title>
<polygon fill="none" stroke="black" points="216.5,-0.5 216.5,-36.5 275.5,-36.5 275.5,-0.5 216.5,-0.5"/>
<text xml:space="preserve" text-anchor="middle" x="231.25" y="-13.45" font-family="Times New Roman,serif" font-size="14.00">17</text>
<polyline fill="none" stroke="black" points="246,-0.5 246,-36.5"/>
<text xml:space="preserve" text-anchor="middle" x="260.75" y="-13.45" font-family="Times New Roman,serif" font-size="14.00">18</text>
</g>
<!-- node5&#45;&gt;node6 -->
<g id="edge5" class="edge">
<title>node5&#45;&gt;node6</title>
<path fill="none" stroke="black" d="M304.36,-73.31C294.97,-64.66 283.41,-54 273.07,-44.46"/>
<polygon fill="black" stroke="black" points="275.57,-42.01 265.85,-37.8 270.83,-47.15 275.57,-42.01"/>
</g>
<!-- node7 -->
<g id="node8" class="node">
<title>node7</title>
<polygon fill="none" stroke="black" points="293.5,-0.5 293.5,-36.5 352.5,-36.5 352.5,-0.5 293.5,-0.5"/>
<text xml:space="preserve" text-anchor="middle" x="308.25" y="-13.45" font-family="Times New Roman,serif" font-size="14.00">22</text>
<polyline fill="none" stroke="black" points="323,-0.5 323,-36.5"/>
<text xml:space="preserve" text-anchor="middle" x="337.75" y="-13.45" font-family="Times New Roman,serif" font-size="14.00">23</text>
</g>
<!-- node5&#45;&gt;node7 -->
<g id="edge6" class="edge">
<title>node5&#45;&gt;node7</title>
<path fill="none" stroke="black" d="M323,-73.31C323,-65.73 323,-56.6 323,-48.04"/>
<polygon fill="black" stroke="black" points="326.5,-48.04 323,-38.04 319.5,-48.04 326.5,-48.04"/>
</g>
<!-- node9 -->
<g id="node10" class="node">
<title>node9</title>
<polygon fill="none" stroke="black" points="371,-0.5 371,-36.5 425,-36.5 425,-0.5 371,-0.5"/>
<text xml:space="preserve" text-anchor="middle" x="397.75" y="-13.45" font-family="Times New Roman,serif" font-size="14.00">28</text>
</g>
<!-- node8&#45;&gt;node9 -->
<g id="edge8" class="edge">
<title>node8&#45;&gt;node9</title>
<path fill="none" stroke="black" d="M425.29,-73.31C421.22,-65.29 416.28,-55.55 411.73,-46.57"/>
<polygon fill="black" stroke="black" points="414.96,-45.21 407.32,-37.88 408.72,-48.38 414.96,-45.21"/>
</g>
<!-- node10 -->
<g id="node11" class="node">
<title>node10</title>
<polygon fill="none" stroke="black" points="443,-0.5 443,-36.5 497,-36.5 497,-0.5 443,-0.5"/>
<text xml:space="preserve" text-anchor="middle" x="469.75" y="-13.45" font-family="Times New Roman,serif" font-size="14.00">33</text>
</g>
<!-- node8&#45;&gt;node10 -->
<g id="edge9" class="edge">
<title>node8&#45;&gt;node10</title>
<path fill="none" stroke="black" d="M442.71,-73.31C446.78,-65.29 451.72,-55.55 456.27,-46.57"/>
<polygon fill="black" stroke="black" points="459.28,-48.38 460.68,-37.88 453.04,-45.21 459.28,-48.38"/>
</g>
<!-- node11 -->
<g id="node12" class="node">
<title>node11</title>
<polygon fill="none" stroke="black" points="515.5,-0.5 515.5,-36.5 574.5,-36.5 574.5,-0.5 515.5,-0.5"/>
<text xml:space="preserve" text-anchor="middle" x="530.25" y="-13.45" font-family="Times New Roman,serif" font-size="14.00">37</text>
<polyline fill="none" stroke="black" points="545,-0.5 545,-36.5"/>
<text xml:space="preserve" text-anchor="middle" x="559.75" y="-13.45" font-family="Times New Roman,serif" font-size="14.00">38</text>
</g>
<!-- node8&#45;&gt;node11 -->
<g id="edge10" class="edge">
<title>node8&#45;&gt;node11</title>
<path fill="none" stroke="black" d="M461.15,-73.13C475.4,-64.02 493.05,-52.73 508.47,-42.86"/>
<polygon fill="black" stroke="black" points="509.93,-46.09 516.47,-37.75 506.16,-40.19 509.93,-46.09"/>
</g>
<!-- node13 -->
<g id="node14" class="node">
<title>node13</title>
<polygon fill="none" stroke="black" points="592.75,-0.5 592.75,-36.5 681.25,-36.5 681.25,-0.5 592.75,-0.5"/>
<text xml:space="preserve" text-anchor="middle" x="607.5" y="-13.45" font-family="Times New Roman,serif" font-size="14.00">52</text>
<polyline fill="none" stroke="black" points="622.25,-0.5 622.25,-36.5"/>
<text xml:space="preserve" text-anchor="middle" x="637" y="-13.45" font-family="Times New Roman,serif" font-size="14.00">55</text>
<polyline fill="none" stroke="black" points="651.75,-0.5 651.75,-36.5"/>
<text xml:space="preserve" text-anchor="middle" x="666.5" y="-13.45" font-family="Times New Roman,serif" font-size="14.00">57</text>
</g>
<!-- node12&#45;&gt;node13 -->
<g id="edge12" class="edge">
<title>node12&#45;&gt;node13</title>
<path fill="none" stroke="black" d="M706.73,-73.31C695.18,-64.4 680.87,-53.36 668.23,-43.6"/>
<polygon fill="black" stroke="black" points="670.64,-41.04 660.58,-37.7 666.36,-46.58 670.64,-41.04"/>
</g>
<!-- node14 -->
<g id="node15" class="node">
<title>node14</title>
<polygon fill="none" stroke="black" points="699.5,-0.5 699.5,-36.5 758.5,-36.5 758.5,-0.5 699.5,-0.5"/>
<text xml:space="preserve" text-anchor="middle" x="714.25" y="-13.45" font-family="Times New Roman,serif" font-size="14.00">62</text>
<polyline fill="none" stroke="black" points="729,-0.5 729,-36.5"/>
<text xml:space="preserve" text-anchor="middle" x="743.75" y="-13.45" font-family="Times New Roman,serif" font-size="14.00">65</text>
</g>
<!-- node12&#45;&gt;node14 -->
<g id="edge13" class="edge">
<title>node12&#45;&gt;node14</title>
<path fill="none" stroke="black" d="M729,-73.31C729,-65.73 729,-56.6 729,-48.04"/>
<polygon fill="black" stroke="black" points="732.5,-48.04 729,-38.04 725.5,-48.04 732.5,-48.04"/>
</g>
<!-- node15 -->
<g id="node16" class="node">
<title>node15</title>
<polygon fill="none" stroke="black" points="777,-0.5 777,-36.5 831,-36.5 831,-0.5 777,-0.5"/>
<text xml:space="preserve" text-anchor="middle" x="803.75" y="-13.45" font-family="Times New Roman,serif" font-size="14.00">82</text>
</g>
<!-- node12&#45;&gt;node15 -->
<g id="edge14" class="edge">
<title>node12&#45;&gt;node15</title>
<path fill="none" stroke="black" d="M747.16,-73.31C756.3,-64.66 767.56,-54 777.64,-44.46"/>
<polygon fill="black" stroke="black" points="779.8,-47.23 784.65,-37.82 774.98,-42.15 779.8,-47.23"/>
</g>
<!-- node16 -->
<g id="node17" class="node">
<title>node16</title>
<polygon fill="none" stroke="black" points="849.5,-0.5 849.5,-36.5 908.5,-36.5 908.5,-0.5 849.5,-0.5"/>
<text xml:space="preserve" text-anchor="middle" x="864.25" y="-13.45" font-family="Times New Roman,serif" font-size="14.00">92</text>
<polyline fill="none" stroke="black" points="879,-0.5 879,-36.5"/>
<text xml:space="preserve" text-anchor="middle" x="893.75" y="-13.45" font-family="Times New Roman,serif" font-size="14.00">95</text>
</g>
<!-- node12&#45;&gt;node16 -->
<g id="edge15" class="edge">
<title>node12&#45;&gt;node16</title>
<path fill="none" stroke="black" d="M765.69,-73.13C787.86,-62.64 816.12,-49.26 838.87,-38.49"/>
<polygon fill="black" stroke="black" points="840.32,-41.68 847.86,-34.24 837.32,-35.36 840.32,-41.68"/>
</g>
</g>
</svg>
