<?xml version="1.0" encoding="UTF-8" standalone="no"?>
<!DOCTYPE svg PUBLIC "-//W3C//DTD SVG 1.1//EN"
 "http://www.w3.org/Graphics/SVG/1.1/DTD/svg11.dtd">
<!-- Generated by graphviz version 14.1.5 (20260411.2331)
 -->
<!-- Title: BTree Pages: 1 -->
<svg width="799pt" height="191pt"
 viewBox="0.00 0.00 799.00 191.00" xmlns="http://www.w3.org/2000/svg" xmlns:xlink="http://www.w3.org/1999/xlink">
<g id="graph0" class="graph" transform="scale(1 1) rotate(0) translate(4 187)">
<title>BTree</title>
<polygon fill="white" stroke="none" points="-4,4 -4,-187 795,-187 795,4 -4,4"/>
<!-- node0 -->
<g id="node1" class="node">
<title>node0</title>
<polygon fill="none" stroke="black" points="243.75,-146.5 243.75,-182.5 332.25,-182.5 332.25,-146.5 243.75,-146.5"/>
<text xml:space="preserve" text-anchor="middle" x="258.5" y="-159.45" font-family="Times New Roman,serif" font-size="14.00">13</text>
<polyline fill="none" stroke="black" points="273.25,-146.5 273.25,-182.5"/>
<text xml:space="preserve" text-anchor="middle" x="288" y="-159.45" font-family="Times New Roman,serif" font-size="14.00">27</text>
<polyline fill="none" stroke="black" points="302.75,-146.5 302.75,-182.5"/>
<text xml:space="preserve" text-anchor="middle" x="317.5" y="-159.45" font-family="Times New Roman,serif" font-size="14.00">42</text>
</g>
<!-- node1 -->
<g id="node2" class="node">
<title>node1</title>
<polygon fill="none" stroke="black" points="72,-73.5 72,-109.5 126,-109.5 126,-73.5 72,-73.5"/>
<text xml:space="preserve" text-anchor="middle" x="98.75" y="-86.45" font-family="Times New Roman,serif" font-size="14.00">10</text>
</g>
<!-- node0&#45;&gt;node1 -->
<g id="edge3" class="edge">
<title>node0&#45;&gt;node1</title>
<path fill="none" stroke="black" d="M243.69,-146.85C211.33,-134.7 167.91,-118.39 137.1,-106.81"/>
<polygon fill="black" stroke="black" points="138.38,-103.55 127.78,-103.31 135.91,-110.11 138.38,-103.55"/>
</g>
<!-- node4 -->
<g id="node5" class="node">
<title>node4</title>
<polygon fill="none" stroke="black" points="224,-73.5 224,-109.5 278,-109.5 278,-73.5 224,-73.5"/>
<text xml:space="preserve" text-anchor="middle" x="250.75" y="-86.45" font-family="Times New Roman,serif" font-size="14.00">20</text>
</g>
<!-- node0&#45;&gt;node4 -->
<g id="edge6" class="edge">
<title>node0&#45;&gt;node4</title>
<path fill="none" stroke="black" d="M279.04,-146.31C274.86,-138.29 269.79,-128.55 265.11,-119.57"/>
<polygon fill="black" stroke="black" points="268.3,-118.12 260.57,-110.87 262.09,-121.36 268.3,-118.12"/>
</g>
<!-- node7 -->
<g id="node8" class="node">
<title>node7</title>
<polygon fill="none" stroke="black" points="332.5,-73.5 332.5,-109.5 391.5,-109.5 391.5,-73.5 332.5,-73.5"/>
<text xml:space="preserve" text-anchor="middle" x="347.25" y="-86.45" font-family="Times New Roman,serif" font-size="14.00">32</text>
<polyline fill="none" stroke="black" points="362,-73.5 362,-109.5"/>
<text xml:space="preserve" text-anchor="middle" x="376.75" y="-86.45" font-family="Times New Roman,serif" font-size="14.00">37</text>
</g>
<!-- node0&#45;&gt;node7 -->
<g id="edge10" class="edge">
<title>node0&#45;&gt;node7</title>
<path fill="none" stroke="black" d="M305.91,-146.31C314.85,-137.74 325.82,-127.21 335.69,-117.74"/>
<polygon fill="black" stroke="black" points="338.11,-120.27 342.9,-110.82 333.26,-115.22 338.11,-120.27"/>
</g>
<!-- node11 -->
<g id="node12" class="node">
<title>node11</title>
<polygon fill="none" stroke="black" points="575.75,-73.5 575.75,-109.5 664.25,-109.5 664.25,-73.5 575.75,-73.5"/>
<text xml:space="preserve" text-anchor="middle" x="590.5" y="-86.45" font-family="Times New Roman,serif" font-size="14.00">57</text>
<polyline fill="none" stroke="black" points="605.25,-73.5 605.25,-109.5"/>
<text xml:space="preserve" text-anchor="middle" x="620" y="-86.45" font-family="Times New Roman,serif" font-size="14.00">65</text>
<polyline fill="none" stroke="black" points="634.75,-73.5 634.75,-109.5"/>
<text xml:space="preserve" text-anchor="middle" x="649.5" y="-86.45" font-family="Times New Roman,serif" font-size="14.00">87</text>
</g>
<!-- node0&#45;&gt;node11 -->
<g id="edge15" class="edge">
<title>node0&#45;&gt;node11</title>
<path fill="none" stroke="black" d="M332.43,-154C392.39,-141.17 499.21,-118.33 564.42,-104.39"/>
<polygon fill="black" stroke="black" points="564.78,-107.89 573.82,-102.38 563.31,-101.04 564.78,-107.89"/>
</g>
<!-- node2 -->
<g id="node3" class="node">
<title>node2</title>
<polygon fill="none" stroke="black" points="0,-0.5 0,-36.5 54,-36.5 54,-0.5 0,-0.5"/>
<text xml:space="preserve" text-anchor="middle" x="13.38" y="-13.45" font-family="Times New Roman,serif" font-size="14.00">3</text>
<polyline fill="none" stroke="black" points="26.75,-0.5 26.75,-36.5"/>
<text xml:space="preserve" text-anchor="middle" x="40.12" y="-13.45" font-family="Times New Roman,serif" font-size="14.00">8</text>
</g>
<!-- node1&#45;&gt;node2 -->
<g id="edge1" class="edge">
<title>node1&#45;&gt;node2</title>
<path fill="none" stroke="black" d="M81.57,-73.31C72.88,-64.74 62.2,-54.21 52.6,-44.74"/>
<polygon fill="black" stroke="black" points="55.17,-42.37 45.6,-37.84 50.26,-47.35 55.17,-42.37"/>
</g>
<!-- node3 -->
<g id="node4" class="node">
<title>node3</title>
<polygon fill="none" stroke="black" points="72,-0.5 72,-36.5 126,-36.5 126,-0.5 72,-0.5"/>
<text xml:space="preserve" text-anchor="middle" x="98.75" y="-13.45" font-family="Times New Roman,serif" font-size="14.00">12</text>
</g>
<!-- node1&#45;&gt;node3 -->
<g id="edge2" class="edge">
<title>node1&#45;&gt;node3</title>
<path fill="none" stroke="black" d="M99,-73.31C99,-65.73 99,-56.6 99,-48.04"/>
<polygon fill="black" stroke="black" points="102.5,-48.04 99,-38.04 95.5,-48.04 102.5,-48.04"/>
</g>
<!-- node5 -->
<g id="node6" class="node">
<title>node5</title>
<polygon fill="none" stroke="black" points="144.5,-0.5 144.5,-36.5 203.5,-36.5 203.5,-0.5 144.5,-0.5"/>
<text xml:space="preserve" text-anchor="middle" x="159.25" y="-13.45" font-family="Times New Roman,serif" font-size="14.00">17</text>
<polyline fill="none" stroke="black" points="174,-0.5 174,-36.5"/>
<text xml:space="preserve" text-anchor="middle" x="188.75" y="-13.45" font-family="Times New Roman,serif" font-size="14.00">18</text>
</g>
<!-- node4&#45;&gt;node5 -->
<g id="edge4" class="edge">
<title>node4&#45;&gt;node5</title>
<path fill="none" stroke="black" d="M232.36,-73.31C222.97,-64.66 211.41,-54 201.07,-44.46"/>
<polygon fill="black" stroke="black" points="203.57,-42.01 193.85,-37.8 198.83,-47.15 203.57,-42.01"/>
</g>
<!-- node6 -->
<g id="node7" class="node">
<title>node6</title>
<polygon fill="none" stroke="black" points="221.5,-0.5 221.5,-36.5 280.5,-36.5 280.5,-0.5 221.5,-0.5"/>
<text xml:space="preserve" text-anchor="middle" x="236.25" y="-13.45" font-family="Times New Roman,serif" font-size="14.00">22</text>
<polyline fill="none" stroke="black" points="251,-0.5 251,-36.5"/>
<text xml:space="preserve" text-anchor="middle" x="265.75" y="-13.45" font-family="Times New Roman,serif" font-size="14.00">23</text>
</g>
<!-- node4&#45;&gt;node6 -->
<g id="edge5" class="edge">
<title>node4&#45;&gt;node6</title>
<path fill="none" stroke="black" d="M251,-73.31C251,-65.73 251,-56.6 251,-48.04"/>
<polygon fill="black" stroke="black" points="254.5,-48.04 251,-38.04 247.5,-48.04 254.5,-48.04"/>
</g>
<!-- node8 -->
<g id="node9" class="node">
<title>node8</title>
<polygon fill="none" stroke="black" points="299,-0.5 299,-36.5 353,-36.5 353,-0.5 299,-0.5"/>
<text xml:space="preserve" text-anchor="middle" x="325.75" y="-13.45" font-family="Times New Roman,serif" font-size="14.00">28</text>
</g>
<!-- node7&#45;&gt;node8 -->
<g id="edge7" class="edge">
<title>node7&#45;&gt;node8</title>
<path fill="none" stroke="black" d="M353.29,-73.31C349.22,-65.29 344.28,-55.55 339.73,-46.57"/>
<polygon fill="black" stroke="black" points="342.96,-45.21 335.32,-37.88 336.72,-48.38 342.96,-45.21"/>
</g>
<!-- node9 -->
<g id="node10" class="node">
<title>node9</title>
<polygon fill="none" stroke="black" points="371,-0.5 371,-36.5 425,-36.5 425,-0.5 371,-0.5"/>
<text xml:space="preserve" text-anchor="middle" x="397.75" y="-13.45" font-family="Times New Roman,serif" font-size="14.00">33</text>
</g>
<!-- node7&#45;&gt;node9 -->
<g id="edge8" class="edge">
<title>node7&#45;&gt;node9</title>
<path fill="none" stroke="black" d="M370.71,-73.31C374.78,-65.29 379.72,-55.55 384.27,-46.57"/>
<polygon fill="black" stroke="black" points="387.28,-48.38 388.68,-37.88 381.04,-45.21 387.28,-48.38"/>
</g>
<!-- node10 -->
<g id="node11" class="node">
<title>node10</title>
<polygon fill="none" stroke="black" points="443,-0.5 443,-36.5 497,-36.5 497,-0.5 443,-0.5"/>
<text xml:space="preserve" text-anchor="middle" x="469.75" y="-13.45" font-family="Times New Roman,serif" font-size="14.00">38</text>
</g>
<!-- node7&#45;&gt;node10 -->
<g id="edge9" class="edge">
<title>node7&#45;&gt;node10</title>
<path fill="none" stroke="black" d="M388.42,-73.13C402.15,-64.11 419.13,-52.94 434.04,-43.14"/>
<polygon fill="black" stroke="black" points="435.78,-46.18 442.21,-37.77 431.94,-40.34 435.78,-46.18"/>
</g>
<!-- node12 -->
<g id="node13" class="node">
<title>node12</title>
<polygon fill="none" stroke="black" points="515.5,-0.5 515.5,-36.5 574.5,-36.5 574.5,-0.5 515.5,-0.5"/>
<text xml:space="preserve" text-anchor="middle" x="530.25" y="-13.45" font-family="Times New Roman,serif" font-size="14.00">52</text>
<polyline fill="none" stroke="black" points="545,-0.5 545,-36.5"/>
<text xml:space="preserve" text-anchor="middle" x="559.75" y="-13.45" font-family="Times New Roman,serif" font-size="14.00">55</text>
</g>
<!-- node11&#45;&gt;node12 -->
<g id="edge11" class="edge">
<title>node11&#45;&gt;node12</title>
<path fill="none" stroke="black" d="M601.84,-73.31C592.7,-64.66 581.44,-54 571.36,-44.46"/>
<polygon fill="black" stroke="black" points="574.02,-42.15 564.35,-37.82 569.2,-47.23 574.02,-42.15"/>
</g>
<!-- node13 -->
<g id="node14" class="node">
<title>node13</title>
<polygon fill="none" stroke="black" points="593,-0.5 593,-36.5 647,-36.5 647,-0.5 593,-0.5"/>
<text xml:space="preserve" text-anchor="middle" x="619.75" y="-13.45" font-family="Times New Roman,serif" font-size="14.00">62</text>
</g>
<!-- node11&#45;&gt;node13 -->
<g id="edge12" class="edge">
<title>node11&#45;&gt;node13</title>
<path fill="none" stroke="black" d="M620,-73.31C620,-65.73 620,-56.6 620,-48.04"/>
<polygon fill="black" stroke="black" points="623.5,-48.04 620,-38.04 616.5,-48.04 623.5,-48.04"/>
</g>
<!-- node14 -->
<g id="node15" class="node">
<title>node14</title>
<polygon fill="none" stroke="black" points="665,-0.5 665,-36.5 719,-36.5 719,-0.5 665,-0.5"/>
<text xml:space="preserve" text-anchor="middle" x="691.75" y="-13.45" font-family="Times New Roman,serif" font-size="14.00">82</text>
</g>
<!-- node11&#45;&gt;node14 -->
<g id="edge13" class="edge">
<title>node11&#45;&gt;node14</title>
<path fill="none" stroke="black" d="M637.43,-73.31C646.12,-64.74 656.8,-54.21 666.4,-44.74"/>
<polygon fill="black" stroke="black" points="668.74,-47.35 673.4,-37.84 663.83,-42.37 668.74,-47.35"/>
</g>
<!-- node15 -->
<g id="node16" class="node">
<title>node15</title>
<polygon fill="none" stroke="black" points="737,-0.5 737,-36.5 791,-36.5 791,-0.5 737,-0.5"/>
<text xml:space="preserve" text-anchor="middle" x="763.75" y="-13.45" font-family="Times New Roman,serif" font-size="14.00">92</text>
</g>
<!-- node11&#45;&gt;node15 -->
<g id="edge14" class="edge">
<title>node11&#45;&gt;node15</title>
<path fill="none" stroke="black" d="M655.23,-73.13C676.84,-62.48 704.49,-48.84 726.5,-37.99"/>
<polygon fill="black" stroke="black" points="728.03,-41.14 735.45,-33.58 724.93,-34.86 728.03,-41.14"/>
</g>
</g>
</svg>
